<svg width="24" height="25" viewBox="0 0 24 25" fill="none" xmlns="http://www.w3.org/2000/svg">
<g clip-path="url(#clip0_48_1330)">
<path d="M10.8328 1.41841C10.2844 1.73716 9.81563 2.02778 9.79219 2.0606C9.76875 2.0981 9.75 2.66997 9.75 3.33091V4.5356L9.87656 4.63403C10.0734 4.78872 11.8781 5.80591 11.9578 5.80591C12.0563 5.80591 13.9781 4.69497 14.0766 4.58247C14.1469 4.49341 14.1562 4.35747 14.1562 3.29341C14.1562 2.17778 14.1516 2.10278 14.0672 2.0231C13.8938 1.86372 12.0563 0.837158 11.9438 0.837158C11.8828 0.837158 11.3859 1.09966 10.8328 1.41841ZM12.6562 1.75591C13.0453 1.98091 13.3594 2.17778 13.3594 2.19185C13.3547 2.22935 12.0141 2.99341 11.9531 2.99341C11.8688 2.99341 10.5469 2.22466 10.5609 2.18247C10.5703 2.15435 11.8828 1.36685 11.9438 1.35747C11.9484 1.35278 12.2719 1.5356 12.6562 1.75591ZM11.7094 4.27778C11.7141 4.73247 11.7047 5.10278 11.6859 5.10278C11.6625 5.10278 11.3438 4.92466 10.9688 4.70903L10.2891 4.31528L10.275 3.47153L10.2656 2.6231L10.9781 3.0356L11.6953 3.45278L11.7094 4.27778ZM13.6406 3.45747V4.29653L12.9469 4.69966C12.5625 4.91997 12.2344 5.10278 12.2156 5.10278C12.2016 5.10278 12.1922 4.73247 12.1969 4.27778L12.2109 3.45278L12.9141 3.04028C13.3031 2.8106 13.6219 2.6231 13.6313 2.6231C13.6359 2.61841 13.6406 2.9981 13.6406 3.45747Z" fill="#7A859F"/>
<path d="M7.71136 5.46365C7.06917 5.83865 6.52542 6.17146 6.50667 6.19959C6.43636 6.3074 6.46917 6.46209 6.58167 6.5324C6.68948 6.60271 6.70823 6.60271 6.87698 6.51834C7.13011 6.38709 9.10823 5.24334 9.17854 5.18709C9.24886 5.12615 9.25354 4.90584 9.17854 4.83084C9.14573 4.79802 9.07073 4.77459 9.00511 4.77927C8.93479 4.77927 8.35823 5.08865 7.71136 5.46365Z" fill="#7A859F"/>
<path d="M14.691 4.89173C14.6207 4.99486 14.6207 5.0183 14.6863 5.11205C14.7426 5.20111 16.852 6.46205 17.1051 6.56048C17.3301 6.64955 17.5317 6.34955 17.3629 6.1808C17.2129 6.0308 14.9863 4.77455 14.8738 4.77455C14.8129 4.77455 14.7379 4.82611 14.691 4.89173Z" fill="#7A859F"/>
<path d="M2.69558 6.11528C2.1284 6.44341 1.65027 6.73403 1.63152 6.76216C1.60808 6.79028 1.59871 7.38091 1.60808 8.07466L1.61746 9.3356L2.67215 9.9356C3.24871 10.2684 3.74558 10.5403 3.77371 10.5403C3.83465 10.5403 5.76121 9.43403 5.87371 9.3356C5.94402 9.26528 5.9534 9.14341 5.9534 8.03247C5.9534 6.92153 5.94402 6.79966 5.87371 6.73403C5.76121 6.6356 3.90965 5.56685 3.80652 5.54341C3.76433 5.52935 3.26746 5.78716 2.69558 6.11528ZM4.46277 6.47153C4.83308 6.68247 5.15183 6.86528 5.17058 6.88403C5.19871 6.91216 3.84871 7.72778 3.77371 7.72778C3.7034 7.72778 2.34402 6.91685 2.36746 6.88872C2.41433 6.84653 3.72215 6.09185 3.75965 6.09185C3.78308 6.08716 4.09715 6.2606 4.46277 6.47153ZM2.82683 7.77466L3.5159 8.16841V9.00747V9.84185L3.22527 9.67778C3.06121 9.58403 2.73308 9.39653 2.49871 9.2606L2.06277 9.01685V8.18247C2.06277 7.7231 2.07683 7.35278 2.10027 7.36216C2.11902 7.36685 2.44715 7.55435 2.82683 7.77466ZM5.47527 8.18247L5.46121 9.01216L5.0159 9.27466C4.77215 9.41997 4.44871 9.60747 4.3034 9.69185L4.03152 9.84185V9.00747V8.16841L4.72527 7.76528C5.10496 7.54497 5.4284 7.35747 5.45183 7.35747C5.47058 7.35278 5.47996 7.72778 5.47527 8.18247Z" fill="#7A859F"/>
<path d="M19.1016 6.09185C18.5578 6.40122 18.0797 6.69185 18.0375 6.72935C17.9625 6.79966 17.9531 6.92153 17.9531 8.02778C17.9531 8.70278 17.9719 9.27466 17.9906 9.30278C18.0328 9.36841 20.0625 10.5403 20.1328 10.5403C20.1984 10.5403 22.1203 9.43403 22.2281 9.3356C22.3031 9.26528 22.3125 9.1481 22.3125 8.03247C22.3125 6.92153 22.3031 6.79966 22.2328 6.72935C22.1203 6.6356 20.1938 5.52466 20.1328 5.52466C20.1047 5.52466 19.6406 5.77778 19.1016 6.09185ZM20.8266 6.47153C21.1922 6.68247 21.5109 6.86528 21.5297 6.88403C21.5625 6.91216 20.2078 7.72778 20.1328 7.72778C20.0766 7.72778 18.7031 6.91685 18.7219 6.8981C18.7641 6.85591 20.0859 6.09185 20.1234 6.09185C20.1422 6.08716 20.4609 6.2606 20.8266 6.47153ZM19.1859 7.77466L19.875 8.16841V9.00747V9.84185L19.5844 9.67778C19.4203 9.58403 19.0922 9.39653 18.8578 9.2606L18.4219 9.01685V8.18247C18.4219 7.7231 18.4406 7.35278 18.4594 7.36216C18.4828 7.36685 18.8109 7.55435 19.1859 7.77466ZM21.8344 8.18247L21.8203 9.01216L21.375 9.27466C21.1313 9.41997 20.8078 9.60747 20.6625 9.69185L20.3906 9.84185V9.00747V8.16841L21.0844 7.76528C21.4641 7.54497 21.7875 7.35747 21.8109 7.35747C21.8297 7.35278 21.8391 7.72778 21.8344 8.18247Z" fill="#7A859F"/>
<path d="M10.1484 9.64966C9.22031 10.1887 8.4375 10.6668 8.40469 10.709C8.31562 10.8262 8.31562 14.7028 8.40469 14.82C8.475 14.9184 11.8594 16.8684 11.9531 16.8684C11.9906 16.8684 12.8063 16.4137 13.7578 15.8653L15.4922 14.8622V12.7622V10.6575L13.7625 9.66372C12.8063 9.11528 11.9859 8.66528 11.9344 8.66997C11.8781 8.66997 11.0766 9.11528 10.1484 9.64966ZM13.3313 9.98716C14.0531 10.3997 14.6766 10.7653 14.7047 10.7934C14.7516 10.8356 14.4234 11.0418 13.3594 11.6559L11.9531 12.4668L10.5469 11.6606C9.77344 11.2153 9.15938 10.8309 9.17813 10.8122C9.25781 10.7325 11.8828 9.22778 11.9484 9.22778C11.9813 9.22778 12.6047 9.56997 13.3313 9.98716ZM10.1859 12.0262C10.8891 12.4293 11.5172 12.7997 11.5922 12.8465L11.7188 12.9356V14.5528C11.7188 15.4387 11.7094 16.1653 11.6953 16.1653C11.6813 16.1653 11.0344 15.7997 10.2656 15.359L8.85938 14.5481V12.9215C8.85938 12.0215 8.86875 11.2903 8.8875 11.2903C8.90156 11.2903 9.48281 11.6184 10.1859 12.0262ZM15.0469 12.9168V14.5481L13.6641 15.345C12.9 15.7809 12.2578 16.1465 12.2344 16.1559C12.2063 16.1653 12.1875 15.5793 12.1875 14.5387V12.9075L13.5844 12.1012C14.3484 11.6559 14.9906 11.295 15.0141 11.2903C15.0328 11.2903 15.0469 12.0215 15.0469 12.9168Z" fill="#7A859F"/>
<path d="M6.5721 9.53716C6.45023 9.62153 6.43616 9.79497 6.55335 9.89341C6.71273 10.034 7.53773 10.4934 7.62679 10.4934C7.76741 10.4934 7.89398 10.3293 7.85648 10.1934C7.83773 10.109 7.69241 10.0012 7.28929 9.77153C6.99398 9.60278 6.73616 9.46216 6.71741 9.46216C6.69398 9.46216 6.62835 9.49497 6.5721 9.53716Z" fill="#7A859F"/>
<path d="M16.5934 9.78091C16.1481 10.0434 16.0497 10.1184 16.0403 10.2168C16.0262 10.3575 16.134 10.4934 16.2653 10.4934C16.3544 10.4934 17.2028 10.0247 17.3575 9.89341C17.3997 9.85591 17.4372 9.77622 17.4372 9.71528C17.4372 9.61216 17.2825 9.46216 17.1794 9.46216C17.1559 9.46216 16.8887 9.60747 16.5934 9.78091Z" fill="#7A859F"/>
<path d="M2.64847 15.5934L1.61722 16.1887L1.60316 17.459C1.59379 18.6215 1.59847 18.734 1.67347 18.7997C1.85629 18.9543 3.67035 19.9622 3.76879 19.9622C3.85785 19.9622 5.29691 19.17 5.77973 18.8559L5.95316 18.7434V17.5059C5.95316 16.4887 5.9391 16.2543 5.88754 16.1981C5.76566 16.0809 3.85316 14.9934 3.7641 14.9934C3.71722 14.9981 3.21566 15.2653 2.64847 15.5934ZM5.16566 16.3434C5.20785 16.3856 3.81097 17.1778 3.73597 17.159C3.58597 17.1168 2.35316 16.3715 2.38597 16.3387C2.40472 16.32 2.72347 16.1278 3.09847 15.9122L3.77347 15.5231L4.45316 15.9168C4.82816 16.1372 5.14691 16.3293 5.16566 16.3434ZM2.85941 17.2481L3.51566 17.6278V18.4622V19.3012L2.80316 18.8887L2.08597 18.4762L2.07191 17.6418C2.06254 16.9012 2.06722 16.8122 2.13285 16.8403C2.17504 16.8543 2.50316 17.0372 2.85941 17.2481ZM5.47504 17.6465L5.46097 18.4715L4.74379 18.884L4.03129 19.2965L4.04066 18.4528L4.05472 17.6043L4.73441 17.2153C5.10941 16.9997 5.42816 16.8215 5.4516 16.8215C5.47035 16.8215 5.47972 17.1918 5.47504 17.6465Z" fill="#7A859F"/>
<path d="M19.0074 15.5934L17.9762 16.1934L17.9621 17.4637C17.9527 18.5559 17.9621 18.7387 18.023 18.7903C18.2152 18.9497 20.0387 19.9622 20.1324 19.9622C20.2262 19.9622 22.0496 18.9497 22.2418 18.7903C22.3027 18.7387 22.3121 18.5465 22.3121 17.5059C22.3121 16.5918 22.298 16.259 22.2559 16.2028C22.1668 16.095 20.2215 14.9934 20.123 14.9934C20.0762 14.9981 19.5746 15.2653 19.0074 15.5934ZM21.5246 16.3434C21.5527 16.3715 20.3105 17.1168 20.1699 17.159C20.0855 17.1825 18.7027 16.3809 18.7449 16.3387C18.7684 16.3153 19.0918 16.1231 19.4574 15.9122L20.1324 15.5278L20.8121 15.9215C21.1871 16.1325 21.5059 16.3247 21.5246 16.3434ZM19.1715 17.2153L19.8512 17.609L19.8652 18.4528L19.8746 19.3012L19.1621 18.8887L18.4449 18.4762L18.4309 17.6465C18.4262 17.1918 18.4355 16.8215 18.4543 16.8215C18.4777 16.8215 18.7965 16.9997 19.1715 17.2153ZM21.834 17.6465L21.8199 18.4715L21.1027 18.8887L20.3902 19.3012L20.3996 18.4528L20.4137 17.609L21.0934 17.2153C21.4684 16.9997 21.7871 16.8215 21.8105 16.8215C21.8293 16.8215 21.8387 17.1918 21.834 17.6465Z" fill="#7A859F"/>
<path d="M7.01733 15.3357C6.50171 15.631 6.39389 15.7529 6.50171 15.9216C6.60952 16.0998 6.72671 16.0763 7.27046 15.7623C7.56108 15.5982 7.81421 15.4341 7.83764 15.406C7.93608 15.2466 7.81421 15.0404 7.62671 15.0404C7.57046 15.0404 7.29389 15.1716 7.01733 15.3357Z" fill="#7A859F"/>
<path d="M16.0827 15.1058C16.0499 15.1433 16.0311 15.2324 16.0405 15.3027C16.0546 15.4152 16.1342 15.4808 16.5702 15.734C17.1092 16.048 17.2733 16.0949 17.3764 15.9496C17.5264 15.748 17.4374 15.6496 16.7483 15.2605C16.3499 15.0308 16.1764 14.9933 16.0827 15.1058Z" fill="#7A859F"/>
<path d="M6.5721 19.0059C6.45023 19.0903 6.43616 19.2637 6.55335 19.3622C6.71741 19.5122 8.92991 20.759 9.02366 20.759C9.07991 20.759 9.14554 20.7356 9.17835 20.7028C9.26273 20.6184 9.24866 20.4075 9.15491 20.3278C9.0471 20.2387 6.76898 18.9309 6.71741 18.9309C6.69398 18.9309 6.62835 18.9637 6.5721 19.0059Z" fill="#7A859F"/>
<path d="M15.9612 19.6106C15.319 19.9809 14.7471 20.3372 14.7002 20.4028C14.6159 20.5106 14.6159 20.5247 14.6909 20.6372C14.7331 20.7075 14.8127 20.759 14.869 20.759C14.9674 20.759 17.1846 19.5122 17.3581 19.3622C17.4002 19.3247 17.4377 19.245 17.4377 19.184C17.4377 19.0809 17.2831 18.9309 17.1799 18.9309C17.1565 18.9309 16.6081 19.2356 15.9612 19.6106Z" fill="#7A859F"/>
<path d="M10.8277 20.3184C10.2746 20.6418 9.80586 20.9278 9.78711 20.9606C9.74023 21.0356 9.74023 23.3887 9.78711 23.4637C9.84805 23.5575 11.8496 24.6965 11.9527 24.6965C12.0559 24.6965 13.8746 23.6653 14.0527 23.5106C14.1559 23.4168 14.1559 23.3981 14.1559 22.2309C14.1559 21.0684 14.1559 21.045 14.0527 20.9325C13.9027 20.7731 12.0699 19.7278 11.9434 19.7325C11.8824 19.7325 11.3809 19.995 10.8277 20.3184ZM12.6699 20.6653C13.0496 20.8809 13.359 21.0731 13.359 21.0872C13.359 21.1012 13.0402 21.2934 12.6559 21.5137L11.948 21.9215L11.2496 21.5184C10.8605 21.2934 10.5465 21.1012 10.5465 21.0872C10.5465 21.0543 11.9199 20.2481 11.9527 20.2575C11.9668 20.2622 12.2902 20.445 12.6699 20.6653ZM11.0152 21.959L11.7184 22.3622V23.1778C11.7184 23.6278 11.6996 23.9934 11.6809 23.9934C11.6574 23.9934 11.334 23.82 10.9637 23.6043L10.2887 23.2153L10.2746 22.3856C10.2699 21.9309 10.2746 21.5559 10.2887 21.5559C10.3027 21.5559 10.6309 21.7387 11.0152 21.959ZM13.6309 22.3856L13.6168 23.2106L12.9371 23.6043C12.5668 23.8153 12.2434 23.9934 12.2246 23.9934C12.2012 23.9934 12.1871 23.6278 12.1871 23.1778V22.3622L12.8809 21.959C13.2605 21.7387 13.584 21.5559 13.6074 21.5559C13.6262 21.5559 13.6355 21.9262 13.6309 22.3856Z" fill="#7A859F"/>
</g>
<defs>
<clipPath id="clip0_48_1330">
<rect width="24" height="24" fill="white" transform="translate(0 0.696533)"/>
</clipPath>
</defs>
</svg>
