<svg width="25" height="25" viewBox="0 0 25 25" fill="none" xmlns="http://www.w3.org/2000/svg">
<path d="M16.3231 12.9693C16.3231 14.9493 14.7231 16.5493 12.7431 16.5493C10.7631 16.5493 9.16309 14.9493 9.16309 12.9693C9.16309 10.9893 10.7631 9.38934 12.7431 9.38934C14.7231 9.38934 16.3231 10.9893 16.3231 12.9693Z" stroke="#7A859F" stroke-width="1.12851" stroke-linecap="round" stroke-linejoin="round"/>
<path d="M12.743 21.2394C16.273 21.2394 19.563 19.1594 21.853 15.5594C22.753 14.1494 22.753 11.7794 21.853 10.3694C19.563 6.76939 16.273 4.68939 12.743 4.68939C9.21301 4.68939 5.92301 6.76939 3.63301 10.3694C2.73301 11.7794 2.73301 14.1494 3.63301 15.5594C5.92301 19.1594 9.21301 21.2394 12.743 21.2394Z" stroke="#7A859F" stroke-width="1.12851" stroke-linecap="round" stroke-linejoin="round"/>
</svg>
