<svg width="28" height="25" viewBox="0 0 28 25" fill="none" xmlns="http://www.w3.org/2000/svg">
<path d="M8.62759 4.73541C6.52814 4.98535 4.75082 5.85179 3.35119 7.31252C2.21815 8.48999 1.50167 9.8563 1.14065 11.5281C1.03512 12.0168 1.02957 12.289 1.00735 15.1549C0.990692 17.3432 1.0018 18.3374 1.04623 18.554C1.25174 19.5371 2.03486 20.3536 3.02905 20.6091C3.47893 20.7257 5.61171 20.7257 6.06159 20.6091C7.21685 20.3091 8.09995 19.2205 8.09995 18.093C8.09995 17.9542 8.12772 17.7431 8.1666 17.6154C8.25547 17.3099 8.71646 16.8489 9.02193 16.7601C9.183 16.7156 9.88282 16.6934 11.4269 16.6934H13.6041L13.7374 16.5546L13.8762 16.4213V10.695V4.96868L13.7374 4.83539L13.6041 4.69653L11.1991 4.70209C9.87727 4.70764 8.72201 4.7243 8.62759 4.73541ZM12.9876 10.6894V15.7992L10.9437 15.8159L8.89974 15.8325L8.47763 16.038C7.70561 16.4213 7.31127 17.0267 7.21129 17.9875C7.12798 18.8262 6.86694 19.2539 6.25599 19.5871L5.90608 19.7759H4.54532H3.18457L2.83466 19.5871C2.44587 19.376 2.27925 19.2039 2.05708 18.7818L1.90712 18.4985L1.89046 15.6659C1.8738 12.7 1.90157 12.1557 2.10707 11.3115C2.85132 8.31781 5.42287 6.03507 8.48874 5.64629C8.68869 5.61852 9.78285 5.5963 10.9214 5.59074L12.9876 5.58519V10.6894Z" fill="#7A859F"/>
<path d="M6.01675 8.39017C5.88345 8.51792 5.8779 8.55124 5.8779 9.27883V10.0286H5.1281C4.40051 10.0286 4.36718 10.0342 4.23944 10.1675C4.10059 10.3008 4.10059 10.3119 4.10059 11.3616C4.10059 12.4113 4.10059 12.4225 4.23944 12.5558C4.36718 12.6891 4.40051 12.6946 5.1281 12.6946H5.8779V13.4444C5.8779 14.172 5.88345 14.2053 6.01675 14.3331C6.15005 14.4719 6.16116 14.4719 7.21089 14.4719C8.26061 14.4719 8.27172 14.4719 8.40502 14.3331C8.53832 14.2053 8.54387 14.172 8.54387 13.4444V12.6946H9.29368C10.0213 12.6946 10.0546 12.6891 10.1823 12.5558C10.3212 12.4225 10.3212 12.4113 10.3212 11.3616C10.3212 10.3119 10.3212 10.3008 10.1823 10.1675C10.0546 10.0342 10.0213 10.0286 9.29368 10.0286H8.54387V9.27883C8.54387 8.55124 8.53832 8.51792 8.40502 8.39017C8.27172 8.25132 8.26061 8.25132 7.21089 8.25132C6.16116 8.25132 6.15005 8.25132 6.01675 8.39017ZM7.65522 9.88978C7.65522 10.6174 7.66077 10.6507 7.79407 10.7784C7.92181 10.9117 7.95514 10.9173 8.68273 10.9173H9.43253V11.3616V11.806H8.68273C7.95514 11.806 7.92181 11.8115 7.79407 11.9448C7.66077 12.0725 7.65522 12.1059 7.65522 12.8335V13.5833H7.21089H6.76656V12.8335C6.76656 12.1059 6.761 12.0725 6.62771 11.9448C6.49996 11.8115 6.46664 11.806 5.73905 11.806H4.98924V11.3616V10.9173H5.73905C6.46664 10.9173 6.49996 10.9117 6.62771 10.7784C6.761 10.6507 6.76656 10.6174 6.76656 9.88978V9.13998H7.21089H7.65522V9.88978Z" fill="#7A859F"/>
<path d="M16.5427 4.76875C16.2706 4.85761 15.804 5.33527 15.7207 5.61853C15.5985 6.04619 15.6652 6.48497 15.904 6.78489L16.0317 6.94041L15.6929 7.62356C15.393 8.2234 15.3319 8.30672 15.1875 8.34004C14.9542 8.39003 14.471 8.89545 14.3877 9.17316C14.2044 9.80633 14.4766 10.4617 15.0487 10.7561C15.1653 10.8116 15.2653 10.8949 15.2653 10.9338C15.2708 10.9671 15.3541 11.6614 15.4541 12.4723L15.6374 13.9441L15.4874 14.1385C15.0653 14.6773 15.1209 15.3327 15.6263 15.8325C16.0151 16.2269 16.4372 16.338 16.9426 16.1824C17.2092 16.1047 17.6147 15.7603 17.7091 15.5271L17.7757 15.3604H18.7699C19.7197 15.3604 19.7585 15.366 19.7919 15.4771C19.853 15.6548 20.1529 15.9658 20.3806 16.088C20.5417 16.1658 20.5972 16.238 20.625 16.3713C20.8971 17.8764 20.9249 18.1097 20.8305 18.1653C20.5972 18.3041 20.2306 18.7373 20.164 18.9484C20.0085 19.4705 20.1196 19.887 20.5139 20.2758C20.9027 20.6702 21.3248 20.7812 21.8302 20.6257C22.0968 20.548 22.5023 20.2036 22.5967 19.9703L22.6633 19.8037H23.8741H25.0849L25.1516 19.9703C25.3071 20.348 25.8681 20.6924 26.329 20.6924C27.0178 20.6924 27.6509 20.0537 27.6509 19.3594C27.6509 18.9095 27.3066 18.3485 26.9289 18.193L26.7623 18.1264V15.8048V13.4831L26.9289 13.4165C27.0233 13.3776 27.1955 13.2388 27.3121 13.1055C27.8898 12.4501 27.7009 11.5059 26.9011 11.0671L26.6845 10.9449L26.5401 10.2229L26.3957 9.50085L26.6012 9.35089C27.3288 8.82325 27.4121 7.95125 26.79 7.33475C26.3068 6.84599 25.607 6.77934 25.1183 7.16812L24.9627 7.29587L24.2796 6.95707C23.6797 6.65715 23.5964 6.59605 23.5631 6.45164C23.5131 6.21837 23.0077 5.73516 22.73 5.65185C22.2801 5.51855 21.8913 5.59076 21.5414 5.86291L21.347 6.01287L19.9029 5.82958C19.1087 5.72961 18.4144 5.6463 18.3645 5.64074C18.3089 5.64074 18.22 5.54632 18.159 5.42413C17.8646 4.84651 17.1759 4.5688 16.5427 4.76875ZM17.2925 5.72406C17.3814 5.80737 17.4314 5.924 17.4314 6.02953C17.4314 6.13506 17.3814 6.2517 17.2925 6.33501C17.2092 6.42387 17.0926 6.47386 16.987 6.47386C16.8815 6.47386 16.7649 6.42387 16.6816 6.33501C16.5927 6.2517 16.5427 6.13506 16.5427 6.02953C16.5427 5.924 16.5927 5.80737 16.6816 5.72406C16.7649 5.63519 16.8815 5.5852 16.987 5.5852C17.0926 5.5852 17.2092 5.63519 17.2925 5.72406ZM22.6245 6.61271C22.7133 6.69602 22.7633 6.81266 22.7633 6.91819C22.7633 7.02372 22.7133 7.14035 22.6245 7.22367C22.5411 7.31253 22.4245 7.36252 22.319 7.36252C22.2135 7.36252 22.0968 7.31253 22.0135 7.22367C21.9246 7.14035 21.8747 7.02372 21.8747 6.91819C21.8747 6.81266 21.9246 6.69602 22.0135 6.61271C22.0968 6.52385 22.2135 6.47386 22.319 6.47386C22.4245 6.47386 22.5411 6.52385 22.6245 6.61271ZM19.653 6.69602C20.3695 6.78489 20.9638 6.86265 20.9749 6.86265C20.9804 6.86265 20.986 6.92374 20.986 6.99595C20.986 7.0626 21.0138 7.207 21.0471 7.30698L21.1137 7.48471L20.064 8.53443C19.0865 9.51196 19.0032 9.58416 18.8143 9.58416H18.6088L18.1034 8.41224L17.6035 7.23477L17.8368 7.02927C17.9646 6.91263 18.109 6.75712 18.1478 6.67381C18.1923 6.59605 18.2534 6.5294 18.2867 6.5294C18.32 6.5294 18.9365 6.60716 19.653 6.69602ZM17.3147 8.80103C17.8146 9.97295 17.8202 9.99516 17.7202 10.1007C17.6147 10.2062 17.6091 10.2007 17.2981 10.0007C17.0037 9.80077 16.987 9.77855 16.987 9.56194C16.987 9.25647 16.776 8.81769 16.5149 8.58998L16.3039 8.40669L16.5149 7.96792C16.6371 7.72909 16.7482 7.5458 16.7704 7.57357C16.7926 7.59579 17.037 8.14565 17.3147 8.80103ZM24.0408 7.83462C24.524 8.079 24.5406 8.09011 24.5406 8.27339C24.5406 8.37892 24.5628 8.52888 24.5962 8.60664C24.6462 8.74549 24.6128 8.77882 23.9297 9.32867L23.2076 9.9063L22.9855 9.78966L22.7633 9.66747V8.91211V8.16231L22.9466 8.07344C23.0466 8.02346 23.2021 7.89571 23.2965 7.79018C23.3854 7.6791 23.4742 7.59024 23.502 7.59024C23.5242 7.58468 23.7686 7.69576 24.0408 7.83462ZM26.1791 7.9457C26.4568 8.21785 26.2624 8.6955 25.8736 8.6955C25.6459 8.6955 25.4293 8.47889 25.4293 8.25117C25.4293 8.02346 25.6459 7.80685 25.8736 7.80685C25.9791 7.80685 26.0958 7.85683 26.1791 7.9457ZM21.8747 8.91211V9.68414L21.708 9.75078C21.5192 9.82854 21.1804 10.1785 21.1248 10.3562C21.0915 10.4617 21.0526 10.4728 20.5472 10.4728H20.0085L19.9085 10.2673L19.8141 10.0674L20.7749 9.10095C21.3026 8.57331 21.7636 8.14009 21.8024 8.14009C21.858 8.14009 21.8747 8.32893 21.8747 8.91211ZM15.9595 9.27869C16.2372 9.55084 16.0428 10.0285 15.654 10.0285C15.4263 10.0285 15.2097 9.81188 15.2097 9.58416C15.2097 9.35644 15.4263 9.13983 15.654 9.13983C15.7596 9.13983 15.8762 9.18982 15.9595 9.27869ZM25.4071 9.4953C25.4848 9.55639 25.5459 9.75634 25.6514 10.284L25.7959 11.0005L25.5737 11.1671L25.346 11.3393L24.5017 11.2004L23.652 11.0616V10.8616C23.6575 10.6783 23.702 10.6339 24.4462 10.0452C24.8794 9.7008 25.2515 9.41754 25.2682 9.41754C25.2849 9.41754 25.346 9.45086 25.4071 9.4953ZM19.0698 10.6117C19.3475 10.8838 19.1531 11.3615 18.7644 11.3615C18.5366 11.3615 18.32 11.1449 18.32 10.9171C18.32 10.6894 18.5366 10.4728 18.7644 10.4728C18.8699 10.4728 18.9865 10.5228 19.0698 10.6117ZM22.6245 10.6117C22.9022 10.8838 22.7078 11.3615 22.319 11.3615C22.0913 11.3615 21.8747 11.1449 21.8747 10.9171C21.8747 10.6894 22.0913 10.4728 22.319 10.4728C22.4245 10.4728 22.5411 10.5228 22.6245 10.6117ZM17.0648 10.9116C17.3536 11.106 17.4869 11.2337 17.5091 11.3393C17.5313 11.4226 17.598 11.5614 17.6591 11.6447C17.7146 11.728 17.7646 11.8114 17.7646 11.8336C17.7646 11.8558 17.5313 12.2557 17.2536 12.7278C16.8426 13.4109 16.7149 13.5831 16.6149 13.5831C16.4761 13.5831 16.4872 13.6498 16.2928 12.0058C16.1761 11.0727 16.165 10.8338 16.2206 10.8005C16.2594 10.7783 16.3428 10.7172 16.4039 10.6728C16.5427 10.5672 16.5594 10.5728 17.0648 10.9116ZM21.1693 11.5392C21.2193 11.6392 21.2915 11.7669 21.3303 11.8169C21.3859 11.8891 21.3637 12.078 21.2359 12.7444C21.086 13.5276 21.0693 13.5831 20.9527 13.5831C20.886 13.5831 20.7916 13.5942 20.7472 13.6164C20.6916 13.6387 20.5639 13.3943 20.2529 12.6778C19.8474 11.7336 19.8418 11.7114 19.9252 11.5392L20.0085 11.3615H20.5417H21.0749L21.1693 11.5392ZM26.6234 11.9447C26.9011 12.2168 26.7067 12.6945 26.3179 12.6945C26.0902 12.6945 25.8736 12.4779 25.8736 12.2501C25.8736 12.0224 26.0902 11.8058 26.3179 11.8058C26.4235 11.8058 26.5401 11.8558 26.6234 11.9447ZM24.1685 12.0502C24.5851 12.1168 24.9405 12.189 24.9516 12.2001C24.9683 12.2113 24.985 12.3223 24.9961 12.4445L25.0127 12.6611L23.5798 13.4609L22.1468 14.2552L22.0413 14.1274C21.9024 13.9608 21.9024 13.9219 22.0802 13.0166C22.2301 12.2612 22.2357 12.2501 22.3801 12.2501C22.5689 12.2501 22.8688 12.1502 23.041 12.0224C23.2187 11.8947 23.2521 11.8947 24.1685 12.0502ZM19.4975 13.1555C19.9029 14.0997 19.9085 14.1219 19.8252 14.294L19.7419 14.4718H18.7699H17.7924L17.6591 14.2274L17.5313 13.983L18.0479 13.1166L18.5644 12.2557L18.7921 12.2335C18.9143 12.2224 19.0309 12.2113 19.0476 12.2057C19.0698 12.2001 19.2698 12.6278 19.4975 13.1555ZM25.7348 13.4276L25.8736 13.4887V15.8103C25.8736 17.8987 25.8625 18.1264 25.7847 18.1597C25.7348 18.1819 25.6626 18.1708 25.6292 18.1486C25.5959 18.1208 24.8128 17.4932 23.8908 16.7601C22.4356 15.5937 22.219 15.3993 22.2523 15.3049C22.2801 15.2327 22.8688 14.8717 23.9297 14.2774C24.8294 13.7775 25.5737 13.3665 25.5792 13.361C25.5848 13.361 25.657 13.3887 25.7348 13.4276ZM16.8482 14.6106C17.1259 14.8828 16.9315 15.3604 16.5427 15.3604C16.315 15.3604 16.0984 15.1438 16.0984 14.9161C16.0984 14.6884 16.315 14.4718 16.5427 14.4718C16.6482 14.4718 16.7649 14.5218 16.8482 14.6106ZM21.2915 14.6106C21.5692 14.8828 21.3748 15.3604 20.986 15.3604C20.7583 15.3604 20.5417 15.1438 20.5417 14.9161C20.5417 14.6884 20.7583 14.4718 20.986 14.4718C21.0915 14.4718 21.2082 14.5218 21.2915 14.6106ZM23.2632 17.3932C24.1629 18.1097 24.9516 18.7484 25.0127 18.8095C25.1183 18.9151 25.1071 18.9151 23.8908 18.9151C22.6967 18.9151 22.6578 18.9095 22.6245 18.7984C22.5634 18.6207 22.2634 18.3097 22.0357 18.1875C21.8747 18.1097 21.8191 18.0375 21.7913 17.9042C21.6358 17.0433 21.5025 16.1602 21.5247 16.1213C21.5359 16.0991 21.5636 16.0825 21.5858 16.0825C21.6081 16.0825 22.3634 16.6712 23.2632 17.3932ZM21.7358 19.0539C22.0135 19.3261 21.8191 19.8037 21.4303 19.8037C21.2026 19.8037 20.986 19.5871 20.986 19.3594C20.986 19.1317 21.2026 18.9151 21.4303 18.9151C21.5359 18.9151 21.6525 18.9651 21.7358 19.0539ZM26.6234 19.0539C26.9011 19.3261 26.7067 19.8037 26.3179 19.8037C26.0902 19.8037 25.8736 19.5871 25.8736 19.3594C25.8736 19.1317 26.0902 18.9151 26.3179 18.9151C26.4235 18.9151 26.5401 18.9651 26.6234 19.0539Z" fill="#7A859F"/>
</svg>
