<svg width="24" height="25" viewBox="0 0 24 25" fill="none" xmlns="http://www.w3.org/2000/svg">
<path d="M11.9997 1.4981C10.8606 1.62935 9.56684 2.06997 8.60122 2.66529C7.61684 3.26997 6.62309 4.20747 5.99965 5.12153L5.84497 5.35122L5.96684 5.44966C6.03715 5.50591 6.17778 5.59497 6.27622 5.65591L6.46372 5.75904L6.80122 5.30903C7.3684 4.54029 8.14184 3.83247 8.97622 3.32154C11.8872 1.53091 15.6887 1.92466 18.1684 4.2731C19.6075 5.63247 20.395 7.24497 20.5778 9.20435C20.6293 9.73403 20.6856 9.93091 21.4778 12.4856C21.9465 13.9809 22.3356 15.2325 22.3497 15.2606C22.3637 15.3075 22.0872 15.3215 21.0512 15.3215H19.7293L19.6168 15.4387C19.4997 15.5512 19.4997 15.5653 19.4997 16.3762V17.1965H18.8622C18.4965 17.1965 18.1403 17.1731 18.0278 17.1403C17.6622 17.0325 17.2497 16.5075 17.2497 16.1465C17.2497 16.0856 17.1887 16.0715 16.87 16.0715H16.4856L16.5184 16.3153C16.5606 16.6481 16.7762 17.0981 17.02 17.3559C17.1418 17.4918 17.3481 17.6372 17.5684 17.7497L17.9247 17.9231L18.7122 17.9418L19.4997 17.9559V19.0762V20.1965H16.9918H14.4793L14.3668 20.3137L14.2497 20.4262V21.8137V23.1965H11.634H9.01372L8.98559 22.3856C8.87778 19.47 8.0809 16.8122 6.48715 14.0793C6.04653 13.3153 5.7934 12.7762 5.61997 12.2278C5.55903 12.0356 5.50747 11.8715 5.50278 11.8622C5.4934 11.8481 4.82309 12.0309 4.79497 12.0543C4.78559 12.0637 4.84184 12.27 4.92153 12.5137C5.09028 13.0247 5.47934 13.8637 5.7934 14.3793C7.38247 16.9856 8.24965 20.0372 8.24965 23.0184C8.24965 23.6981 8.25434 23.7215 8.36684 23.8293L8.47934 23.9465H11.6247H14.77L14.8825 23.8293L14.9997 23.7168V22.3293V20.9465H17.5075H20.02L20.1325 20.8293L20.2497 20.7168V18.3918V16.0715H21.6325H23.02L23.1325 15.9543C23.1981 15.8934 23.2497 15.795 23.2497 15.7387C23.2497 15.6872 22.8278 14.2903 22.3122 12.6403C21.445 9.87466 21.37 9.60747 21.3278 9.11997C21.084 6.53716 19.734 4.27778 17.5731 2.84341C15.9747 1.77466 13.9215 1.28247 11.9997 1.4981Z" fill="#7A859F"/>
<path d="M12.3844 3.75749C12.1781 3.82312 11.8406 4.12312 11.7422 4.33874C11.6953 4.43718 11.6438 4.62937 11.6297 4.76999L11.6016 5.02781L10.8703 5.43562L10.1391 5.84343L9.86719 5.70749C9.57188 5.55749 9.3375 5.53874 9.0375 5.62781C8.8125 5.69343 8.47031 5.98406 8.39063 6.18093L8.33438 6.32156H6.68906H5.04375L4.28906 5.57156L3.53438 4.82156H3.225C2.925 4.82156 2.91563 4.81687 2.85938 4.68093C2.72813 4.36218 2.25469 4.07156 1.875 4.07156C1.29375 4.07156 0.75 4.6153 0.75 5.19656C0.75 5.77781 1.29375 6.32156 1.875 6.32156C2.25469 6.32156 2.72813 6.03093 2.85938 5.71218C2.90625 5.59968 2.94375 5.57156 3.06094 5.57156C3.1875 5.57156 3.31406 5.67937 3.96094 6.32156L4.71563 7.07156H6.525H8.33438L8.39063 7.21218C8.45625 7.37156 8.75156 7.65749 8.90156 7.70437C8.98594 7.72781 9 7.76999 9 7.96687V8.19656H5.95781H2.91563L2.85938 8.05593C2.72813 7.73718 2.25469 7.44656 1.875 7.44656C1.29375 7.44656 0.75 7.99031 0.75 8.57156C0.75 9.15281 1.29375 9.69656 1.875 9.69656C2.25469 9.69656 2.72813 9.40593 2.85938 9.08718L2.91563 8.94656H5.95781H9V9.17624C9 9.38718 8.99063 9.41062 8.85938 9.46218C8.7 9.52781 8.41406 9.82312 8.36719 9.97312C8.33906 10.0716 8.32969 10.0716 6.52969 10.0716H4.71563L3.96094 10.8216C3.31406 11.4637 3.1875 11.5716 3.06094 11.5716C2.94375 11.5716 2.90625 11.5434 2.85938 11.4309C2.72813 11.1122 2.25469 10.8216 1.875 10.8216C1.29375 10.8216 0.75 11.3653 0.75 11.9466C0.75 12.5278 1.29375 13.0716 1.875 13.0716C2.25469 13.0716 2.72813 12.7809 2.85938 12.4622C2.91563 12.3262 2.925 12.3216 3.225 12.3216H3.53438L4.28906 11.5716L5.04375 10.8216H6.68906H8.33438L8.39063 10.9622C8.47031 11.1591 8.8125 11.4497 9.0375 11.5153C9.3375 11.6044 9.57188 11.5856 9.86719 11.4356L10.1391 11.2997L10.8703 11.7075L11.6016 12.1153L11.6297 12.3731C11.6672 12.7153 11.7844 12.945 12.0281 13.1606C12.3328 13.4278 12.6938 13.5075 13.0875 13.3903C13.3219 13.32 13.65 13.0341 13.7578 12.8044C13.8047 12.7059 13.8563 12.5137 13.8703 12.3731L13.8984 12.1153L14.6297 11.7075L15.3609 11.2997L15.6328 11.4356C16.1016 11.67 16.5188 11.5997 16.8984 11.22C17.2313 10.8919 17.325 10.5356 17.1938 10.1091C17.1281 9.88406 16.8375 9.54187 16.6406 9.46218L16.5 9.40593V8.57156V7.73718L16.6406 7.68093C16.8375 7.60124 17.1281 7.25906 17.1938 7.03406C17.325 6.60749 17.2313 6.25124 16.8984 5.92312C16.4953 5.51531 15.9563 5.45437 15.5063 5.76843L15.3797 5.85281L14.6391 5.4403L13.8984 5.02781L13.8703 4.77468C13.8281 4.4278 13.7719 4.29656 13.5469 4.0528C13.2563 3.73406 12.8063 3.62155 12.3844 3.75749ZM13.0078 4.56374C13.0828 4.63406 13.125 4.73249 13.125 4.82156C13.125 4.91062 13.0828 5.00906 13.0078 5.07937C12.9375 5.15437 12.8391 5.19656 12.75 5.19656C12.6609 5.19656 12.5625 5.15437 12.4922 5.07937C12.4172 5.00906 12.375 4.91062 12.375 4.82156C12.375 4.73249 12.4172 4.63406 12.4922 4.56374C12.5625 4.48874 12.6609 4.44656 12.75 4.44656C12.8391 4.44656 12.9375 4.48874 13.0078 4.56374ZM2.13281 4.93874C2.36719 5.16843 2.20312 5.57156 1.875 5.57156C1.68281 5.57156 1.5 5.38874 1.5 5.19656C1.5 5.00437 1.68281 4.82156 1.875 4.82156C1.96406 4.82156 2.0625 4.86374 2.13281 4.93874ZM12.2016 5.78249L12.375 5.87156V6.69187V7.51687L12.1828 7.61999L11.9953 7.72312L11.2594 7.31531L10.5234 6.90281V6.69656V6.49031L11.25 6.08249C11.6484 5.85749 11.9859 5.67468 12 5.67937C12.0141 5.68874 12.1031 5.73093 12.2016 5.78249ZM14.25 6.08249L14.9766 6.49031V6.69656V6.90281L14.2406 7.31531L13.5047 7.72312L13.3172 7.61999L13.125 7.51687V6.69656V5.87624L13.3031 5.77781C13.3969 5.72156 13.4859 5.67468 13.5 5.67468C13.5141 5.67468 13.8516 5.85749 14.25 6.08249ZM9.63281 6.43874C9.86719 6.66843 9.70312 7.07156 9.375 7.07156C9.18281 7.07156 9 6.88874 9 6.69656C9 6.50437 9.18281 6.32156 9.375 6.32156C9.46406 6.32156 9.5625 6.36374 9.63281 6.43874ZM16.3828 6.43874C16.4578 6.50906 16.5 6.60749 16.5 6.69656C16.5 6.78562 16.4578 6.88406 16.3828 6.95437C16.3125 7.02937 16.2141 7.07156 16.125 7.07156C16.0359 7.07156 15.9375 7.02937 15.8672 6.95437C15.7922 6.88406 15.75 6.78562 15.75 6.69656C15.75 6.60749 15.7922 6.50906 15.8672 6.43874C15.9375 6.36374 16.0359 6.32156 16.125 6.32156C16.2141 6.32156 16.3125 6.36374 16.3828 6.43874ZM10.875 7.95749L11.6016 8.36531V8.57156V8.77781L10.8656 9.19031L10.1297 9.59812L9.94219 9.49499L9.75 9.39187V8.57156V7.75124L9.92813 7.65281C10.0219 7.59656 10.1109 7.54968 10.125 7.54968C10.1391 7.54968 10.4766 7.73249 10.875 7.95749ZM15.5766 7.65749L15.75 7.74656V8.56687V9.39187L15.5578 9.49499L15.3703 9.59812L14.6344 9.19031L13.8984 8.77781V8.57156V8.36531L14.625 7.95749C15.0234 7.73249 15.3609 7.54968 15.375 7.55437C15.3891 7.56374 15.4781 7.60593 15.5766 7.65749ZM2.13281 8.31374C2.36719 8.54343 2.20312 8.94656 1.875 8.94656C1.68281 8.94656 1.5 8.76374 1.5 8.57156C1.5 8.37937 1.68281 8.19656 1.875 8.19656C1.96406 8.19656 2.0625 8.23874 2.13281 8.31374ZM13.0078 8.31374C13.0828 8.38406 13.125 8.48249 13.125 8.57156C13.125 8.66062 13.0828 8.75906 13.0078 8.82937C12.9375 8.90437 12.8391 8.94656 12.75 8.94656C12.6609 8.94656 12.5625 8.90437 12.4922 8.82937C12.4172 8.75906 12.375 8.66062 12.375 8.57156C12.375 8.48249 12.4172 8.38406 12.4922 8.31374C12.5625 8.23874 12.6609 8.19656 12.75 8.19656C12.8391 8.19656 12.9375 8.23874 13.0078 8.31374ZM12.2016 9.53249L12.375 9.62156V10.4419V11.2669L12.1828 11.37L11.9953 11.4731L11.2594 11.0653L10.5234 10.6528V10.4466V10.2403L11.25 9.83249C11.6484 9.60749 11.9859 9.42468 12 9.42937C12.0141 9.43874 12.1031 9.48093 12.2016 9.53249ZM14.25 9.83249L14.9766 10.2403V10.4466V10.6528L14.2406 11.0653L13.5047 11.4731L13.3172 11.37L13.125 11.2669V10.4466V9.62624L13.3031 9.52781C13.3969 9.47156 13.4859 9.42468 13.5 9.42468C13.5141 9.42468 13.8516 9.60749 14.25 9.83249ZM9.63281 10.1887C9.86719 10.4184 9.70312 10.8216 9.375 10.8216C9.18281 10.8216 9 10.6387 9 10.4466C9 10.2544 9.18281 10.0716 9.375 10.0716C9.46406 10.0716 9.5625 10.1137 9.63281 10.1887ZM16.3828 10.1887C16.4578 10.2591 16.5 10.3575 16.5 10.4466C16.5 10.5356 16.4578 10.6341 16.3828 10.7044C16.3125 10.7794 16.2141 10.8216 16.125 10.8216C16.0359 10.8216 15.9375 10.7794 15.8672 10.7044C15.7922 10.6341 15.75 10.5356 15.75 10.4466C15.75 10.3575 15.7922 10.2591 15.8672 10.1887C15.9375 10.1137 16.0359 10.0716 16.125 10.0716C16.2141 10.0716 16.3125 10.1137 16.3828 10.1887ZM2.13281 11.6887C2.36719 11.9184 2.20312 12.3216 1.875 12.3216C1.68281 12.3216 1.5 12.1387 1.5 11.9466C1.5 11.7544 1.68281 11.5716 1.875 11.5716C1.96406 11.5716 2.0625 11.6137 2.13281 11.6887ZM13.0078 12.0637C13.0828 12.1341 13.125 12.2325 13.125 12.3216C13.125 12.4106 13.0828 12.5091 13.0078 12.5794C12.9375 12.6544 12.8391 12.6966 12.75 12.6966C12.6609 12.6966 12.5625 12.6544 12.4922 12.5794C12.4172 12.5091 12.375 12.4106 12.375 12.3216C12.375 12.2325 12.4172 12.1341 12.4922 12.0637C12.5625 11.9887 12.6609 11.9466 12.75 11.9466C12.8391 11.9466 12.9375 11.9887 13.0078 12.0637Z" fill="#7A859F"/>
</svg>
