<svg width="24" height="25" viewBox="0 0 24 25" fill="none" xmlns="http://www.w3.org/2000/svg">
<g clip-path="url(#clip0_48_1355)">
<path d="M1.16746 1.46059C1.05496 1.52153 0.900272 1.66216 0.820585 1.76997L0.67996 1.97153L0.665897 6.40122C0.651835 11.3325 0.637772 11.0559 0.96121 11.0559C1.07371 11.0559 1.14402 11.0231 1.21433 10.934C1.31277 10.8122 1.31277 10.7606 1.31277 8.82466V6.83716H12.0003H22.6878V15.0309C22.6878 22.9153 22.6831 23.234 22.6034 23.3043C22.5237 23.3793 21.7175 23.384 11.9909 23.384C1.85652 23.384 1.46277 23.3793 1.39246 23.2997C1.32215 23.22 1.31277 23.0137 1.31277 21.3262C1.31277 19.17 1.31277 19.17 0.951835 19.1653C0.651835 19.1653 0.651835 19.1512 0.665897 21.4012L0.67996 23.4122L0.797147 23.5856C0.862772 23.684 0.99871 23.82 1.09715 23.8903L1.27996 24.0168H12.0003H22.7206L22.9034 23.8903C23.0018 23.82 23.1378 23.684 23.2034 23.5856L23.3206 23.4122V12.6965V1.97622L23.194 1.79341C23.1237 1.69497 22.9878 1.55903 22.8893 1.49341L22.7159 1.37622L12.0471 1.36216L1.37371 1.35278L1.16746 1.46059ZM22.6034 2.08872C22.6831 2.15903 22.6878 2.28559 22.6878 4.1981V6.22778H12.0003H1.31277V4.20278C1.31277 2.38872 1.32215 2.1731 1.39246 2.09341C1.46277 2.01372 1.85652 2.00903 11.9909 2.00903C21.7175 2.00903 22.5237 2.01372 22.6034 2.08872Z" fill="#7A859F"/>
<path d="M13.0547 3.01214C12.6094 3.22308 12.3797 3.60276 12.375 4.1137C12.375 4.48401 12.4875 4.74183 12.7594 4.98558C13.0125 5.21995 13.2328 5.30433 13.5703 5.30433C13.9313 5.30901 14.2266 5.17308 14.475 4.89183C14.6859 4.65276 14.7656 4.41839 14.7656 4.06683C14.7656 3.20901 13.8422 2.64183 13.0547 3.01214ZM13.9172 3.67776C14.0719 3.80433 14.1656 4.05276 14.1234 4.22151C13.9781 4.79339 13.1813 4.81683 13.0312 4.25901C12.8906 3.7387 13.5094 3.33558 13.9172 3.67776Z" fill="#7A859F"/>
<path d="M16.4626 2.96068C16.2564 3.0263 15.9095 3.34036 15.7923 3.56536C15.3939 4.34349 15.9892 5.30911 16.8657 5.30443C17.4048 5.30443 17.8642 4.98099 18.0282 4.47943C18.2251 3.87943 17.8876 3.1763 17.3017 2.96536C17.1001 2.89036 16.6782 2.89036 16.4626 2.96068ZM17.1939 3.63099C17.3392 3.72943 17.4376 3.94036 17.4376 4.14661C17.4376 4.27786 17.4001 4.35286 17.2829 4.47005C17.0251 4.72786 16.7767 4.74193 16.5048 4.51224C16.2517 4.3013 16.2517 3.9263 16.5095 3.68724C16.622 3.58411 16.6923 3.55599 16.8704 3.55599C16.9923 3.55599 17.1329 3.5888 17.1939 3.63099Z" fill="#7A859F"/>
<path d="M19.6364 3.03101C18.7317 3.50444 18.7832 4.82163 19.7254 5.22476C19.9785 5.33257 20.4145 5.32788 20.6723 5.21069C20.9301 5.09819 21.2489 4.76069 21.3332 4.51226C21.4129 4.27319 21.4082 3.85601 21.3192 3.64507C21.0426 2.99819 20.2504 2.70757 19.6364 3.03101ZM20.4801 3.62632C20.5551 3.66382 20.6489 3.77163 20.6957 3.86538C20.9207 4.33882 20.4239 4.83569 19.9504 4.61069C19.7442 4.51226 19.641 4.33413 19.641 4.06694C19.641 3.91226 19.6692 3.84663 19.8004 3.71538C19.9317 3.58413 19.9973 3.55601 20.152 3.55601C20.2598 3.55601 20.4098 3.58882 20.4801 3.62632Z" fill="#7A859F"/>
<path d="M2.70897 3.86991C2.53553 4.07616 2.5871 4.31522 2.82616 4.39959C3.02772 4.46522 10.5699 4.46522 10.7762 4.39491C10.9918 4.31991 11.048 4.05272 10.8887 3.86991C10.8183 3.79491 10.5605 3.79022 6.79647 3.79022C3.02772 3.79022 2.7746 3.79491 2.70897 3.86991Z" fill="#7A859F"/>
<path d="M13.5281 9.87945C13.4344 9.98257 9.9375 19.3763 9.9375 19.5263C9.9375 19.7748 10.3031 19.9201 10.4719 19.7326C10.5609 19.6341 14.0203 10.3623 14.0531 10.1326C14.0906 9.85132 13.7203 9.66851 13.5281 9.87945Z" fill="#7A859F"/>
<path d="M8.91543 12.3543C8.77012 12.4106 6.25293 14.5903 6.21543 14.6934C6.1873 14.7637 6.1873 14.8481 6.21543 14.9184C6.23887 14.9793 6.84355 15.5278 7.56074 16.1372C8.68574 17.0934 8.8873 17.2434 9.01855 17.2434C9.25762 17.2434 9.38887 17.0372 9.2998 16.8028C9.28574 16.7653 8.77012 16.3059 8.15137 15.7809C7.5373 15.2606 7.03105 14.82 7.03105 14.8059C7.03105 14.7872 7.47637 14.3981 8.0248 13.934C9.32793 12.8325 9.32793 12.8325 9.32793 12.6637C9.32793 12.4622 9.08887 12.284 8.91543 12.3543Z" fill="#7A859F"/>
<path d="M14.9065 12.3543C14.644 12.4528 14.5971 12.7247 14.8033 12.9215C14.8736 12.9918 15.3893 13.4372 15.9518 13.9106C16.5096 14.3887 16.969 14.7918 16.969 14.8059C16.969 14.82 16.5236 15.2137 15.9752 15.6778C15.4315 16.1372 14.9111 16.5825 14.8268 16.6622C14.5596 16.9153 14.6533 17.2434 14.9908 17.2434C15.1127 17.2434 15.3424 17.07 16.4393 16.1372C17.1565 15.5325 17.7611 14.984 17.7846 14.9184C17.8127 14.8481 17.8127 14.7637 17.7846 14.6887C17.7236 14.5247 15.0705 12.284 14.9861 12.3262C14.9815 12.3262 14.944 12.3403 14.9065 12.3543Z" fill="#7A859F"/>
<path d="M0.75 12.7903C0.665625 12.8747 0.65625 12.945 0.65625 13.4934C0.65625 14.0418 0.665625 14.1122 0.75 14.1965C0.885938 14.3325 1.09688 14.3184 1.21406 14.1684C1.30313 14.0559 1.3125 13.9809 1.3125 13.484C1.3125 12.9543 1.30781 12.9215 1.19531 12.8137C1.05938 12.6731 0.876563 12.6637 0.75 12.7903Z" fill="#7A859F"/>
<path d="M0.75 16.0246C0.665625 16.109 0.65625 16.1793 0.65625 16.7231C0.65625 17.3231 0.65625 17.3324 0.778125 17.4262C0.932813 17.5481 1.03594 17.5481 1.17656 17.4356C1.28438 17.3512 1.28906 17.309 1.30313 16.7652C1.31719 16.2309 1.3125 16.1793 1.21875 16.0574C1.09688 15.9027 0.885938 15.8887 0.75 16.0246Z" fill="#7A859F"/>
</g>
<defs>
<clipPath id="clip0_48_1355">
<rect width="24" height="24" fill="white" transform="translate(0 0.696533)"/>
</clipPath>
</defs>
</svg>
