<svg width="24" height="25" viewBox="0 0 24 25" fill="none" xmlns="http://www.w3.org/2000/svg">
<path d="M21.188 2.47309C20.9254 2.55278 20.7567 2.69341 20.0161 3.43403L19.2426 4.21216H10.8895C4.88951 4.21216 2.46607 4.22622 2.28795 4.26372C1.75826 4.37622 1.28014 4.7606 1.05045 5.25747L0.91451 5.5481L0.900448 11.6887C0.891073 17.7122 0.891073 17.834 0.984823 18.134C1.09264 18.4997 1.34576 18.8418 1.65514 19.0575C2.10045 19.3622 1.99732 19.3528 5.87389 19.3528H9.38951L9.3567 19.5965C9.30982 19.9575 9.08014 20.5997 8.87857 20.9465C8.61607 21.4012 8.11451 21.87 7.62232 22.1184C7.15357 22.3575 7.12076 22.3856 7.11607 22.5918C7.11139 22.6997 7.1442 22.7747 7.23795 22.8543L7.36451 22.9622H11.3161C15.2442 22.9622 15.2676 22.9622 15.3942 22.8637C15.5161 22.77 15.5536 22.5965 15.4879 22.4278C15.4739 22.3856 15.2676 22.2543 15.0286 22.1325C14.4379 21.8278 13.9317 21.3215 13.6504 20.759C13.4536 20.3653 13.2661 19.7418 13.2661 19.4887V19.3528L16.8661 19.3434L20.4614 19.3293L20.7286 19.2028C21.0801 19.0387 21.3942 18.7153 21.577 18.3309L21.727 18.0168L21.7411 12.1106L21.7505 6.20435L22.4067 5.5481C23.1145 4.83559 23.2458 4.62934 23.2505 4.24497C23.2505 3.88403 23.1426 3.71059 22.5567 3.11997C22.0926 2.65591 21.9708 2.55747 21.7786 2.50122C21.5254 2.42622 21.3708 2.41685 21.188 2.47309ZM22.0879 3.64028C22.4583 4.01528 22.5473 4.12778 22.5473 4.2356C22.5473 4.35747 22.0223 4.89653 18.4926 8.43091L14.4379 12.4856L13.8286 11.8762L13.2192 11.2668L17.2598 7.22622C21.0567 3.42934 21.3145 3.18091 21.4645 3.18091C21.6098 3.18091 21.6848 3.23716 22.0879 3.64028ZM15.4317 8.0231L12.3708 11.084L12.1645 12.1997C11.9348 13.4137 11.9254 13.4793 12.0192 13.5965C12.1504 13.7747 12.2676 13.77 13.4161 13.559C14.0301 13.4465 14.5692 13.334 14.6114 13.3106C14.6583 13.2872 16.1067 11.8481 17.8364 10.1231C19.5614 8.39341 20.9911 6.97778 21.0145 6.97778C21.0333 6.97778 21.0426 9.42935 21.0379 12.4247L21.0239 17.8762L20.9208 18.0637C20.7942 18.3028 20.6536 18.434 20.3911 18.5512C20.1801 18.645 20.1379 18.6497 11.3489 18.6497C4.86607 18.6497 2.47076 18.6356 2.33951 18.5981C2.10514 18.5231 1.84732 18.3122 1.72076 18.0731L1.61764 17.8762L1.60357 11.9934C1.5942 8.75903 1.60357 5.99809 1.61764 5.86684C1.65514 5.54341 1.87545 5.21528 2.15201 5.06997L2.35826 4.96216H10.4254H18.4926L15.4317 8.0231ZM13.2379 12.8512C12.9895 12.8981 12.7833 12.9309 12.7739 12.9215C12.7598 12.9075 12.8817 12.1997 12.9192 12.0918C12.9333 12.045 13.0598 12.1387 13.3176 12.3965L13.6926 12.7668L13.2379 12.8512ZM12.5536 19.5168C12.6286 20.3465 13.0317 21.2793 13.6036 21.9403L13.8379 22.2122H11.3067H8.77545L8.93951 22.034C9.24889 21.7059 9.46451 21.3918 9.65201 20.9934C9.83951 20.5997 10.0786 19.7887 10.0786 19.5403C10.0786 19.4747 10.0926 19.3997 10.1114 19.3856C10.1301 19.3668 10.6833 19.3575 11.3395 19.3622L12.5395 19.3762L12.5536 19.5168Z" fill="#7A859F"/>
<path d="M2.43352 8.0044C2.26946 8.17315 2.26009 8.29034 2.41009 8.46378L2.52259 8.59503L3.33821 8.62315C3.93821 8.6419 4.21009 8.67003 4.38352 8.73097C5.12884 8.99815 5.72415 9.51378 6.03821 10.17C6.14134 10.3857 6.24915 10.6763 6.27727 10.8122C6.3054 10.9482 6.32884 11.5388 6.32884 12.1247C6.32884 13.3997 6.37102 13.7372 6.58196 14.1732C6.97102 14.9888 7.68353 15.4435 8.64915 15.495C9.57727 15.5466 10.2007 15.331 10.721 14.7919C11.0445 14.4591 11.2226 14.1403 11.321 13.7185C11.4242 13.2778 11.4148 13.0903 11.2741 12.9544C11.1335 12.8091 10.9601 12.8044 10.8148 12.9403C10.7257 13.02 10.6882 13.1278 10.6507 13.3669C10.5617 13.9482 10.257 14.3841 9.77415 14.6232C9.55853 14.7263 9.48821 14.7357 8.86009 14.7357C8.21321 14.7357 8.17102 14.731 7.94134 14.6091C7.62727 14.445 7.29446 14.07 7.17727 13.7466C7.08821 13.5169 7.07884 13.3857 7.07884 12.3919C7.07884 11.7919 7.0554 11.1357 7.02727 10.9341C6.88665 9.92628 6.30071 9.00753 5.4429 8.4544C4.79134 8.03253 4.13509 7.86846 3.11321 7.86846C2.57884 7.86846 2.56946 7.86846 2.43352 8.0044Z" fill="#7A859F"/>
</svg>
